<svg xmlns="http://www.w3.org/2000/svg" viewBox="0 0 256 256"><g fill="none" stroke-width="2"><path stroke="#1f62c5" d="M127.925 91.372c14.11.01 26.3-7.99 32.85-20.32 2.62-4.92 3.37-10.64 4.01-15.65q.07-.58.66-.58h56.78a.52.52 0 0 0 .42-.82l-20.6-28.84a2.36 2.35 72.3 0 0-1.9-.99q-7.83-.06-72.21-.07-64.38-.01-72.21.04a2.36 2.35-72.3 0 0-1.9.99l-20.61 28.83a.52.52 0 0 0 .42.82l56.78.02q.59 0 .66.58c.63 5.01 1.38 10.74 4 15.66 6.55 12.33 18.73 20.33 32.85 20.33"/><path stroke="#5d99f3" d="M127.965 213.492q.13 0 .2-.02.08-.03.15-.11 7.37-8.29 41.92-47.79a.71.7-69.4 0 0-.53-1.17h-28.39q-.86 0-.86-.86v-40.29a1.1 1.1 0 0 0-1.02-1.1q-5.56-.4-11.43-.4-5.86 0-11.43.39a1.1 1.1 0 0 0-1.02 1.1l-.03 40.29q0 .86-.86.86l-28.39-.03a.71.7 69.5 0 0-.54 1.17q34.52 39.53 41.88 47.83.07.08.15.11.07.02.2.02"/></g><path fill="#2f7cee" d="M128.025 11.872c46.247.014 72.453.024 78.62.03.52 0 .93.21 1.23.63l29.5 41.29c.417.586.64 1.288.64 2.01-.007 51.594-.02 106.817-.04 165.67 0 4.68-.29 9.93-2.56 13.77-2.26 3.814-5.23 6.307-8.91 7.48-2.887.914-6.733 1.374-11.54 1.38-11.9.007-40.897.007-86.99 0-46.1-.013-75.097-.026-86.99-.04-4.813-.013-8.663-.476-11.55-1.39-3.673-1.173-6.64-3.666-8.9-7.48-2.27-3.84-2.56-9.09-2.55-13.77.007-58.853.02-114.076.04-165.67 0-.722.224-1.424.64-2.01l29.52-41.28c.3-.42.71-.63 1.23-.63l78.61.01Zm-.1 79.5c14.11.01 26.3-7.99 32.85-20.32 2.62-4.92 3.37-10.64 4.01-15.65.047-.386.267-.58.66-.58h56.78a.52.52 0 0 0 .443-.784l-.023-.036-20.6-28.84a2.357 2.357 0 0 0-1.9-.99c-5.22-.04-29.29-.063-72.21-.07-42.92-.006-66.99.007-72.21.04a2.357 2.357 0 0 0-1.9.99l-20.61 28.83a.52.52 0 0 0 .377.818c.015.002.029.002.043.002l56.78.02c.393 0 .613.194.66.58.63 5.01 1.38 10.74 4 15.66 6.55 12.33 18.73 20.33 32.85 20.33Zm.04 122.12a.74.74 0 0 0 .2-.02.377.377 0 0 0 .15-.11c4.913-5.526 18.887-21.456 41.92-47.79.355-.414.137-1.057-.393-1.157a.699.699 0 0 0-.137-.013h-28.39c-.573 0-.86-.286-.86-.86v-40.29a1.1 1.1 0 0 0-1.02-1.1c-3.707-.266-7.517-.4-11.43-.4-3.907 0-7.717.13-11.43.39a1.102 1.102 0 0 0-1.02 1.1l-.03 40.29c0 .574-.287.86-.86.86l-28.39-.03c-.54-.014-.887.567-.625 1.047a.748.748 0 0 0 .085.123c23.013 26.354 36.973 42.297 41.88 47.83.047.054.097.09.15.11a.74.74 0 0 0 .2.02Z"/><path fill="#0f489b" d="M127.935 24.102c42.92.007 66.99.03 72.21.07a2.357 2.357 0 0 1 1.9.99l20.6 28.84a.52.52 0 0 1-.377.818c-.014.002-.029.002-.043.002h-56.78c-.393 0-.613.194-.66.58-.64 5.01-1.39 10.73-4.01 15.65-6.55 12.33-18.74 20.33-32.85 20.32-14.12 0-26.3-8-32.85-20.33-2.62-4.92-3.37-10.65-4-15.66-.047-.386-.267-.58-.66-.58l-56.78-.02a.52.52 0 0 1-.42-.82l20.61-28.83a2.357 2.357 0 0 1 1.9-.99c5.22-.033 29.29-.046 72.21-.04Z"/><path fill="#8ab6f7" d="M128.005 121.752c3.913 0 7.723.134 11.43.4a1.1 1.1 0 0 1 1.02 1.1v40.29c0 .574.287.86.86.86h28.39c.54-.006.879.58.61 1.056a.706.706 0 0 1-.08.114c-23.033 26.334-37.007 42.264-41.92 47.79a.377.377 0 0 1-.15.11.74.74 0 0 1-.2.02.74.74 0 0 1-.2-.02.377.377 0 0 1-.15-.11c-4.907-5.533-18.867-21.476-41.88-47.83-.355-.414-.137-1.057.392-1.158a.74.74 0 0 1 .148-.012l28.39.03c.573 0 .86-.286.86-.86l.03-40.29a1.102 1.102 0 0 1 1.02-1.1c3.713-.26 7.523-.39 11.43-.39Z"/></svg>